HIERARCHY
ROOT WildBoar_ROOTSHJnt
{
	OFFSET 0.000000 44.410820 68.815338
	CHANNELS 6 Xposition Yposition Zposition Xrotation Yrotation Zrotation
	JOINT WildBoar_Spine_01SHJnt
	{
		OFFSET -0.000000 -13.726324 -0.500702
		CHANNELS 3 Xrotation Yrotation Zrotation
		JOINT WildBoar_Spine_02SHJnt
		{
			OFFSET -0.000000 -13.721075 -0.511734
			CHANNELS 3 Xrotation Yrotation Zrotation
			JOINT WildBoar_Spine_03SHJnt
			{
				OFFSET -0.000000 -13.733017 -0.763184
				CHANNELS 3 Xrotation Yrotation Zrotation
				JOINT WildBoar_Spine_04SHJnt
				{
					OFFSET 0.000000 -13.726805 1.066475
					CHANNELS 3 Xrotation Yrotation Zrotation
					JOINT WildBoar_Spine_TopSHJnt
					{
						OFFSET 0.000000 -13.726805 0.709183
						CHANNELS 3 Xrotation Yrotation Zrotation
						JOINT WildBoar_l_Clavicle_01_01SHJnt
						{
							OFFSET 8.670297 0.000000 0.000000
							CHANNELS 3 Xrotation Yrotation Zrotation
							JOINT WildBoar_l_FrontLeg_HipSHJnt
							{
								OFFSET 3.164961 0.548840 -12.164703
								CHANNELS 3 Xrotation Yrotation Zrotation
								JOINT WildBoar_l_FrontLeg_Knee1SHJnt
								{
									OFFSET 0.316314 -0.817221 -32.444130
									CHANNELS 3 Xrotation Yrotation Zrotation
									JOINT WildBoar_l_FrontLeg_Knee2SHJnt
									{
										OFFSET 0.171660 1.067869 -17.603088
										CHANNELS 3 Xrotation Yrotation Zrotation
										JOINT WildBoar_l_FrontLeg_AnkleSHJnt
										{
											OFFSET 0.012912 -0.586981 -1.322436
											CHANNELS 3 Xrotation Yrotation Zrotation
											JOINT WildBoar_l_FrontLeg_BallSHJnt
											{
												OFFSET -0.004807 -3.825893 -5.280976
												CHANNELS 3 Xrotation Yrotation Zrotation
												JOINT WildBoar_l_FrontLeg_ToeSHJnt
												{
													OFFSET -0.006160 -4.905069 -0.000002
													CHANNELS 3 Xrotation Yrotation Zrotation
													End Site
													{
														OFFSET 4.905067 -0.006161 -0.000003
													}
												}
											}
										}
									}
								}
							}
						}
						JOINT WildBoar_r_Clavicle_01_01SHJnt
						{
							OFFSET -8.670297 0.000000 0.000000
							CHANNELS 3 Xrotation Yrotation Zrotation
							JOINT WildBoar_r_FrontLeg_HipSHJnt
							{
								OFFSET -3.164964 0.548840 -12.164703
								CHANNELS 3 Xrotation Yrotation Zrotation
								JOINT WildBoar_r_FrontLeg_Knee1SHJnt
								{
									OFFSET -0.316322 -0.817221 -32.444130
									CHANNELS 3 Xrotation Yrotation Zrotation
									JOINT WildBoar_r_FrontLeg_Knee2SHJnt
									{
										OFFSET -0.171665 1.067869 -17.603088
										CHANNELS 3 Xrotation Yrotation Zrotation
										JOINT WildBoar_r_FrontLeg_AnkleSHJnt
										{
											OFFSET -0.012913 -0.586981 -1.322436
											CHANNELS 3 Xrotation Yrotation Zrotation
											JOINT WildBoar_r_FrontLeg_BallSHJnt
											{
												OFFSET 0.004806 -3.825893 -5.280976
												CHANNELS 3 Xrotation Yrotation Zrotation
												JOINT WildBoar_r_FrontLeg_ToeSHJnt
												{
													OFFSET 0.006160 -4.905069 -0.000002
													CHANNELS 3 Xrotation Yrotation Zrotation
													End Site
													{
														OFFSET 4.905068 0.006161 -0.000002
													}
												}
											}
										}
									}
								}
							}
						}
						JOINT WildBoar_Neck_01SHJnt
						{
							OFFSET -0.000000 -12.476246 -2.105774
							CHANNELS 3 Xrotation Yrotation Zrotation
							JOINT WildBoar_Neck_02SHJnt
							{
								OFFSET 0.000000 -10.017231 1.165779
								CHANNELS 3 Xrotation Yrotation Zrotation
								JOINT WildBoar_Neck_TopSHJnt
								{
									OFFSET 0.000000 -9.610825 0.768044
									CHANNELS 3 Xrotation Yrotation Zrotation
									JOINT WildBoar_Head_JawSHJnt
									{
										OFFSET -0.000001 -11.273338 -4.973049
										CHANNELS 3 Xrotation Yrotation Zrotation
										JOINT WildBoar_Head_JawEndSHJnt
										{
											OFFSET -0.000002 -22.190353 -15.124695
											CHANNELS 3 Xrotation Yrotation Zrotation
											End Site
											{
												OFFSET -0.000002 -22.110291 -15.241497
											}
										}
									}
									JOINT WildBoar_Head_TopSHJnt
									{
										OFFSET 0.000002 -15.944977 17.523094
										CHANNELS 3 Xrotation Yrotation Zrotation
										JOINT WildBoar_l_Ear_01_01SHJnt
										{
											OFFSET 10.362524 11.406597 -2.807991
											CHANNELS 3 Xrotation Yrotation Zrotation
											JOINT WildBoar_l_Ear_01_02SHJnt
											{
												OFFSET 6.918999 -0.514683 5.827293
												CHANNELS 3 Xrotation Yrotation Zrotation
												JOINT WildBoar_l_Ear_01_03SHJnt
												{
													OFFSET 5.957382 0.355659 6.469810
													CHANNELS 3 Xrotation Yrotation Zrotation
													End Site
													{
														OFFSET 5.020468 -6.741234 -2.612671
													}
												}
											}
										}
										JOINT WildBoar_r_Ear_01_01SHJnt
										{
											OFFSET -10.362526 11.406597 -2.807991
											CHANNELS 3 Xrotation Yrotation Zrotation
											JOINT WildBoar_r_Ear_01_02SHJnt
											{
												OFFSET -6.918997 -0.514683 5.827293
												CHANNELS 3 Xrotation Yrotation Zrotation
												JOINT WildBoar_r_Ear_01_03SHJnt
												{
													OFFSET -5.957380 0.355659 6.469810
													CHANNELS 3 Xrotation Yrotation Zrotation
													End Site
													{
														OFFSET -5.020468 -6.741234 -2.612671
													}
												}
											}
										}
										JOINT WildBoar_Nose_01_01SHJnt
										{
											OFFSET 0.146534 -15.145607 -20.472496
											CHANNELS 3 Xrotation Yrotation Zrotation
											JOINT WildBoar_Nose_01_02SHJnt
											{
												OFFSET -0.000001 -9.738365 -5.125526
												CHANNELS 3 Xrotation Yrotation Zrotation
												End Site
												{
													OFFSET 0.000001 -6.131317 9.138596
												}
											}
										}
									}
								}
							}
						}
					}
				}
			}
		}
	}
	JOINT WildBoar_l_HindLeg_HipSHJnt
	{
		OFFSET 11.907801 0.071259 -9.892372
		CHANNELS 3 Xrotation Yrotation Zrotation
		JOINT WildBoar_l_HindLeg_Knee1SHJnt
		{
			OFFSET -1.208079 8.601734 -32.196701
			CHANNELS 3 Xrotation Yrotation Zrotation
			JOINT WildBoar_l_HindLeg_Knee2SHJnt
			{
				OFFSET 0.929813 -5.149776 -18.902822
				CHANNELS 3 Xrotation Yrotation Zrotation
				JOINT WildBoar_l_HindLeg_AnkleSHJnt
				{
					OFFSET -0.016349 -0.419094 -2.601883
					CHANNELS 3 Xrotation Yrotation Zrotation
					JOINT WildBoar_l_HindLeg_BallSHJnt
					{
						OFFSET -0.062816 -2.064716 -5.221140
						CHANNELS 3 Xrotation Yrotation Zrotation
						JOINT WildBoar_l_HindLeg_ToeSHJnt
						{
							OFFSET 0.563698 -5.159508 -0.000093
							CHANNELS 3 Xrotation Yrotation Zrotation
							End Site
							{
								OFFSET 5.159507 0.563698 0.000025
							}
						}
					}
				}
			}
		}
	}
	JOINT WildBoar_r_HindLeg_HipSHJnt
	{
		OFFSET -11.907801 0.071259 -9.892372
		CHANNELS 3 Xrotation Yrotation Zrotation
		JOINT WildBoar_r_HindLeg_Knee1SHJnt
		{
			OFFSET 1.208084 8.601734 -32.196701
			CHANNELS 3 Xrotation Yrotation Zrotation
			JOINT WildBoar_r_HindLeg_Knee2SHJnt
			{
				OFFSET -0.929811 -5.149776 -18.902822
				CHANNELS 3 Xrotation Yrotation Zrotation
				JOINT WildBoar_r_HindLeg_AnkleSHJnt
				{
					OFFSET 0.016349 -0.419094 -2.601883
					CHANNELS 3 Xrotation Yrotation Zrotation
					JOINT WildBoar_r_HindLeg_BallSHJnt
					{
						OFFSET 0.062817 -2.064716 -5.221139
						CHANNELS 3 Xrotation Yrotation Zrotation
						JOINT WildBoar_r_HindLeg_ToeSHJnt
						{
							OFFSET -0.563698 -5.159508 -0.000092
							CHANNELS 3 Xrotation Yrotation Zrotation
							End Site
							{
								OFFSET 5.159507 -0.563698 -0.000023
							}
						}
					}
				}
			}
		}
	}
	JOINT WildBoar_Tail_01_01SHJnt
	{
		OFFSET 0.000000 20.717888 9.172180
		CHANNELS 3 Xrotation Yrotation Zrotation
		JOINT WildBoar_Tail_01_02SHJnt
		{
			OFFSET -0.000000 5.092255 -8.034218
			CHANNELS 3 Xrotation Yrotation Zrotation
			JOINT WildBoar_Tail_01_03SHJnt
			{
				OFFSET -0.000000 -0.708420 -11.714390
				CHANNELS 3 Xrotation Yrotation Zrotation
				End Site
				{
					OFFSET -0.000000 11.707321 -0.816906
				}
			}
		}
	}
}
MOTION
Frames: 6
Frame Time: 0.040000
0.000000 44.410820 68.815338 -0.000000 0.000000 -0.000000 0.000137 -0.000073 0.000002 -0.000000 0.000000 0.000000 0.000000 -0.000010 0.000000 -0.000000 -0.000000 -0.000000 -0.000000 -0.000000 -0.000000 -0.000000 0.000000 -0.000000 -0.000002 0.000007 0.000171 0.000006 -0.000004 0.000003 0.000000 0.000002 0.000001 0.000003 -0.000002 0.000001 -0.000000 -0.000014 0.000000 0.000000 -0.000000 0.000000 -0.000000 0.000000 -0.000000 -0.000001 -0.000003 -0.000061 -0.000000 0.000002 -0.000007 -0.000003 0.000005 -0.000002 0.000000 -0.000002 -0.000003 0.000000 -0.000020 -0.000000 -0.000000 -0.000000 -0.000000 -0.000000 -0.000002 0.000000 -0.000006 0.000010 -0.000001 -0.000000 -0.000010 0.000005 -16.076720 -0.000000 0.000003 -0.000012 -0.000000 -0.000000 0.000007 -0.000001 -0.000007 -0.000000 0.000003 0.000004 -0.000001 0.000003 -0.000000 -0.000001 0.000013 -0.000004 -0.000003 -0.000001 -0.000000 0.000001 -0.000007 -0.000012 0.000003 -0.000002 0.000003 -0.000000 -0.000000 -0.000000 -0.000009 -0.000000 -0.000000 0.000001 0.000007 0.000001 -0.000006 -0.000003 -0.000001 0.000007 0.000004 -0.000005 -0.000000 -0.000002 0.000001 -0.000000 0.000004 -0.000000 0.000000 0.000000 -0.000000 0.000004 -0.000014 -0.000001 -0.000006 -0.000001 0.000002 0.000007 -0.000004 0.000004 -0.000000 0.000005 -0.000002 0.000001 0.000006 0.000000 -0.000000 0.000000 0.000000 -0.000017 -0.000002 -0.000005 0.000005 0.000000 0.000000 -0.000000 0.000000 0.000000 
0.000000 44.410812 68.297821 1.766992 0.000000 -0.000000 -6.072914 -0.008679 -0.001062 5.231891 0.000429 -0.006525 1.752105 -0.000010 0.000003 0.479145 -0.000000 -0.000006 1.824334 0.000000 -0.000000 -0.000000 0.000000 0.000000 -11.068690 -0.019907 -0.052183 13.646955 0.015420 0.131844 -8.881440 0.008729 -0.086033 0.996926 0.020649 0.000413 0.000000 -0.000014 0.000000 0.000000 -0.000000 0.000000 -0.000001 0.000000 0.000012 -10.995432 0.019964 0.051446 13.440843 -0.014952 -0.129891 -8.746757 -0.008531 0.084734 0.995305 -0.020555 -0.000398 0.000000 -0.000020 -0.000000 0.000000 -0.000000 -0.000000 1.433115 1.934470 -1.035247 2.323115 2.510932 -1.634825 6.290124 1.167576 -1.384709 -16.076720 -0.000000 0.000003 -0.000010 -0.000000 0.000000 0.000005 -0.000002 -0.000007 -4.704099 -6.788578 5.772909 -5.020301 -6.788014 5.566567 -0.000002 0.000007 -0.000009 -4.998635 3.977632 -3.341164 -5.132249 4.214643 -2.845056 -0.000004 -0.000002 0.000003 0.000002 -0.000001 -0.000000 -0.000003 0.000000 -0.000000 -0.621197 0.228022 0.024291 -4.170178 -0.668670 -0.046912 2.539184 0.417078 -0.017282 0.294851 -0.010344 -0.000164 -0.000000 0.000004 0.000000 -0.000000 -0.000000 0.000001 -0.621193 -0.227993 -0.024290 -4.170190 0.668670 0.046915 2.539182 -0.417072 0.017279 0.294853 0.010347 0.000166 0.000001 0.000006 -0.000000 -0.000000 0.000000 0.000000 1.931988 0.073736 0.212608 1.931413 0.048354 0.198879 0.000000 0.000001 -0.000000 
0.000000 44.410820 66.989441 5.243811 0.000000 -0.000000 -11.221523 0.001395 0.000515 7.866671 0.000010 -0.000397 3.020546 -0.000010 -0.000001 2.184628 -0.000000 -0.000003 4.591024 0.000001 0.000004 -0.000001 -0.000000 0.000000 -25.418151 -0.051359 -0.124596 32.444659 0.086402 0.299933 -21.374213 0.047862 -0.203312 2.259573 0.056770 -0.004255 -0.000000 -0.000014 0.000000 0.000000 -0.000000 0.000000 -0.000001 -0.000000 0.000000 -25.363580 0.051306 0.124054 32.285946 -0.085571 -0.298631 -21.182681 -0.047189 0.201594 2.251347 -0.056636 0.004308 0.000000 -0.000020 -0.000000 0.000000 -0.000000 -0.000000 3.383110 4.406745 -2.324250 5.502023 5.702555 -3.785972 14.286340 2.384240 -3.335290 -16.076722 0.000002 0.000003 -0.000014 0.000000 0.000001 0.000009 -0.000001 -0.000006 -9.674327 -16.105852 12.433909 -10.438841 -15.925493 12.059043 -0.000000 0.000009 -0.000002 -11.066294 9.406923 -6.831478 -11.402354 9.825810 -5.708544 0.000000 0.000000 0.000005 -0.000002 0.000001 -0.000001 -0.000005 -0.000000 0.000000 -1.512506 0.716828 0.055508 -12.934824 -2.052023 -0.302885 8.304389 1.336701 -0.123738 0.858244 -0.023244 -0.001484 -0.000000 0.000004 0.000000 0.000000 0.000000 -0.000000 -1.512507 -0.716826 -0.055509 -12.934835 2.052024 0.302889 8.304388 -1.336699 0.123754 0.858246 0.023244 0.001477 0.000001 0.000006 0.000000 0.000000 0.000000 0.000000 5.973210 0.198407 0.638363 5.972072 0.143111 0.610021 0.000002 0.000003 -0.000000 
0.000000 44.421997 64.962837 7.496831 0.000000 -0.000000 -14.254023 -0.010386 -0.002171 6.045815 0.000046 -0.001135 4.934084 -0.000009 -0.000002 8.094151 0.000001 -0.000002 2.534098 0.000000 -0.000001 0.000001 0.000000 -0.000000 -36.240840 0.071595 -0.026190 51.373886 0.208761 0.436996 -32.522106 -0.201993 -0.465844 4.814978 0.344837 -0.096512 0.000000 -0.000014 0.000000 -0.000000 -0.000000 0.000000 0.000001 0.000000 0.000006 -35.476720 0.082888 0.193004 49.513967 -0.194803 -0.425417 -33.009369 -0.107436 0.302591 3.626964 -0.094977 0.009849 0.000000 -0.000020 -0.000000 0.000000 -0.000000 -0.000000 4.502752 5.800507 -2.993080 7.311137 6.954864 -4.972577 18.449434 2.955913 -4.434784 -16.076715 -0.000000 0.000001 -0.000010 0.000001 -0.000001 0.000015 -0.000000 -0.000008 -11.318802 -20.676905 15.680678 -12.480686 -20.364593 15.119028 -0.000002 0.000005 -0.000003 -14.146147 12.100261 -8.153660 -14.613374 12.522169 -6.722295 -0.000000 0.000000 0.000009 0.000005 0.000001 -0.000001 -0.000005 0.000001 -0.000002 -0.734012 1.293116 0.044234 -23.860093 -3.692104 -0.911143 15.436718 2.458222 -0.355587 1.242318 -0.033171 -0.002121 -0.000000 0.000004 -0.000000 -0.000000 -0.000000 -0.000000 -0.734012 -1.293115 -0.044235 -23.860096 3.692102 0.911147 15.436718 -2.458217 0.355608 1.242320 0.033170 0.002123 0.000001 0.000006 0.000000 -0.000000 0.000000 0.000001 9.348119 0.246041 1.024769 9.347317 0.213908 1.007460 -0.000001 -0.000001 -0.000002 
0.000000 44.724457 61.327103 4.376191 0.000000 -0.000000 -21.587677 -0.022130 -0.007037 6.659970 0.000337 -0.009680 8.925909 -0.000009 0.000005 14.364564 0.000001 -0.000003 -3.990154 -0.000000 -0.000003 -0.000000 -0.000000 0.000000 -34.337232 2.083089 4.269795 61.308277 0.289140 0.490834 -15.585527 -12.049008 -5.572530 23.267658 6.972729 -4.693393 -0.000005 -0.000014 0.000000 0.000000 0.000000 0.000000 -0.000000 -0.000000 0.000014 -25.872398 -0.044828 -0.059255 41.364650 -0.138387 -0.369561 -24.298468 1.269399 1.565006 4.764445 -0.898085 0.282260 -0.000000 -0.000020 0.000000 0.000000 -0.000000 0.000000 3.907405 6.003952 -2.462667 6.330871 7.266929 -4.035030 15.308001 3.419320 -3.571616 -16.076725 -0.000001 0.000002 -0.000005 0.000003 0.000001 0.000002 -0.000002 -0.000006 -5.359646 -10.584728 9.352805 -6.425566 -10.105004 8.950681 -0.000004 0.000014 -0.000007 -8.722000 4.364746 -2.452931 -8.787423 4.846489 -1.409058 -0.000001 0.000000 0.000000 -0.000000 0.000001 -0.000001 -0.000007 0.000000 -0.000001 8.216640 2.230612 -0.114316 -40.039576 -5.828689 -2.350490 26.298665 4.072498 -0.916201 0.820099 -0.055237 0.004043 -0.000000 0.000004 0.000000 0.000000 0.000000 0.000000 8.216643 -2.230615 0.114315 -40.039566 5.828686 2.350489 26.298668 -4.072489 0.916234 0.820101 0.055237 -0.004044 0.000001 0.000006 0.000001 -0.000000 -0.000000 0.000001 11.016580 0.144096 1.213218 11.016947 0.158103 1.220854 -0.000001 0.000003 -0.000000 
0.000000 45.402039 58.093540 -3.375895 0.000000 -0.000000 -18.795193 0.009199 0.004808 4.774285 -0.000809 0.020015 5.189769 0.009649 0.001643 5.757125 0.054152 0.012593 0.079618 0.033918 0.007370 -0.000000 -0.000000 0.000000 -22.981995 5.399482 12.164130 66.893186 0.338043 0.514739 33.622409 -30.131059 0.041500 36.482947 17.028987 -14.840387 0.000002 -0.000014 0.000000 0.000002 0.000000 0.000001 -0.000000 -0.000000 0.000004 -6.760602 -1.301125 -1.490723 30.883284 -0.078439 -0.286967 15.952856 3.174985 9.426439 19.871831 -5.230472 3.318549 -0.000001 -0.000021 0.000001 -0.000002 0.000000 -0.000001 0.552194 5.305266 -0.079508 1.038923 6.580464 0.552126 1.679452 3.693202 0.263772 -16.076722 0.000000 0.000003 -0.000010 0.000002 0.000001 0.000009 -0.000002 -0.000007 13.874263 12.448987 -12.472010 14.254180 12.405070 -12.025445 -0.000004 0.000005 -0.000003 9.405556 -12.697336 16.567981 10.435871 -11.899436 16.552654 -0.000002 0.000003 0.000005 -0.000002 -0.000001 -0.000001 -0.000007 -0.000000 0.000000 21.189137 2.944549 -0.371952 -52.727179 -7.164468 -3.859916 35.028024 5.265739 -1.526172 -0.174371 -0.047395 0.008594 -0.000000 0.000004 -0.000000 0.000000 -0.000000 -0.000001 21.189134 -2.944547 0.371952 -52.727168 7.164461 3.859920 35.028024 -5.265721 1.526214 -0.174369 0.047401 -0.008588 0.000001 0.000006 0.000000 -0.000000 0.000000 0.000001 11.589908 0.164967 1.295888 11.592151 0.165734 1.193866 -0.000001 0.000005 0.000000 
